<svg id="圖層_1" data-name="圖層 1" xmlns="http://www.w3.org/2000/svg" viewBox="0 0 70.13 62.3"><defs><style>.cls-1{fill:#049341;}.cls-2{fill:#ffec6b;stroke:#fff;stroke-miterlimit:10;}.cls-3{fill:#513617;}.cls-4{fill:#ff8d61;}</style></defs><path class="cls-1" d="M16.21,9.71a8.21,8.21,0,0,1,1,4c-.07,1.51-1,2.58-1.44,4a3.33,3.33,0,0,0-.16.88,3.4,3.4,0,0,0,.12.71,8.66,8.66,0,0,1-.37,4c-.09.38-1.15,2.8-.79,3a6.29,6.29,0,0,0-1.36-.65A9.48,9.48,0,0,0,15,22.24c.14-.75.49-3.28-.16-3.83a1.07,1.07,0,0,0-.36-.16c-2.45-.71-5-2.19-6.15-4.51C7,11.15,7.19,7.94,7.13,5.11c.79.08,1.55,0,2.31.08a12.37,12.37,0,0,1,2,.72,5.78,5.78,0,0,1,1.78.53A7.79,7.79,0,0,1,16.21,9.71Z"/><path class="cls-2" d="M13.93,20.58a7.91,7.91,0,0,1,5.45,4,17.19,17.19,0,0,1,2.35,6.8c.65,4.88-.15,9.85.38,14.74S25,56.19,29.64,57.88C28.26,50,37.35,43.83,38,35.85a28.79,28.79,0,0,1,5.61,8.24c2-1.75,3.82-3.72,5.87-5.37a9.28,9.28,0,0,0,2.28-2.95c.17-.33,1.49-3.19,1.13-3.41-2.29-1.46-5.32-1.29-7.64-2.69-1-.62-2-1.56-3.21-1.43-.06-2.3,1.34-4.3,2.95-5.82,1.85-1.75,4.65-1.9,6.91-2.83,3-1.24,5.3-3.74,8-5.58a20.15,20.15,0,0,1,5.33-2.61c-4.45-2.32-9.72-2.31-14.74-2.24a35.39,35.39,0,0,0-9.25,1c-3.6,1-6.77,3.2-10.19,4.75a6.26,6.26,0,0,1-2,.62,8.86,8.86,0,0,1-1.85-.18,15.73,15.73,0,0,0-7.42.69c-.63.22-1.24.5-1.85.78a10.05,10.05,0,0,1-2.29.8A6.24,6.24,0,0,0,11.8,20.2l2,.35Z"/><circle class="cls-3" cx="22.01" cy="20.46" r="1.04"/><path class="cls-4" d="M33.87,30.54s-.15,0-.18,0S33.92,30.54,33.87,30.54Z"/><polygon class="cls-4" points="34.24 31.13 34.18 31.12 34.34 31.21 34.24 31.13"/><path class="cls-4" d="M34.23,31.69c.29-.05,0-.2.06-.3l.07,0-.23-.05C34.16,31.45,34.31,31.6,34.23,31.69Z"/><path class="cls-4" d="M33.61,32c.11,0,.09.06,0-.07h0S33.61,31.94,33.61,32Z"/><path class="cls-4" d="M33.61,31.91c0-.06-.09,0,0,0Z"/><path class="cls-4" d="M33.67,32.18l-.1-.08c-.06,0-.08.08-.13,0S33.56,32.22,33.67,32.18Z"/><path class="cls-4" d="M33.88,32.26l0,0S33.8,32.23,33.88,32.26Z"/><path class="cls-4" d="M33.75,32.13l.09.08s.14,0,0,0C33.89,32.18,33.81,32.17,33.75,32.13Z"/><path class="cls-4" d="M33.8,32.08c.06,0,.1-.09.2,0C34,31.92,33.76,31.94,33.8,32.08Z"/><path class="cls-4" d="M34.53,31.72l.08-.06-.09-.05S34.44,31.72,34.53,31.72Z"/><path class="cls-4" d="M33.51,32.65l.24,0-.07-.06A.3.3,0,0,1,33.51,32.65Z"/><path class="cls-4" d="M33.75,32.62l.1.09C33.87,32.63,33.82,32.62,33.75,32.62Z"/><polygon class="cls-4" points="34.2 32.28 33.98 32.13 34.2 32.3 34.2 32.28"/><polygon class="cls-4" points="33.49 32.96 33.35 32.91 33.56 33 33.49 32.96"/><path class="cls-4" d="M33.51,33.18c-.12,0-.2,0-.27,0s.12.11.21.16S33.41,33.24,33.51,33.18Z"/><path class="cls-4" d="M33.57,33.41l-.12-.07A.31.31,0,0,0,33.57,33.41Z"/><path class="cls-4" d="M33.82,32.85a.48.48,0,0,0-.18.06l.18,0Z"/><path class="cls-4" d="M33.82,32.88h0l0,.07Z"/><path class="cls-4" d="M33.82,32.84h0S33.84,32.85,33.82,32.84Z"/><path class="cls-4" d="M34,32.49c.09.06.19.16.34.07C34.26,32.52,34.18,32.57,34,32.49Z"/><path class="cls-4" d="M34,32.81l0-.09a.43.43,0,0,1-.16,0Z"/><polygon class="cls-4" points="34.09 32.85 34.03 32.81 34.02 32.84 34.09 32.85"/><path class="cls-4" d="M33.74,33.27a.16.16,0,0,1,.09.13.47.47,0,0,0,.06-.15C33.83,33.24,33.74,33.21,33.74,33.27Z"/><path class="cls-4" d="M33.79,33.08h0S33.82,33.08,33.79,33.08Z"/><polygon class="cls-4" points="33.81 33.87 33.84 33.86 33.81 33.86 33.81 33.87"/><path class="cls-4" d="M33.92,33.24s0-.06-.06-.08a.16.16,0,0,1,0,.09S33.93,33.25,33.92,33.24Z"/><path class="cls-4" d="M33.65,33.55l.1-.06C33.69,33.5,33.6,33.54,33.65,33.55Z"/><path class="cls-4" d="M33.76,33.1h0Z"/><path class="cls-4" d="M33.76,33.1l.1.06a.13.13,0,0,0-.06-.07Z"/><path class="cls-4" d="M34.9,34.06c-.16,0-.3-.12-.13-.2a1.91,1.91,0,0,0-.93,0,.31.31,0,0,1,.22.1c.09,0,.21-.18.35-.1s-.06.09-.15.14c.2,0,.28.17.58.16l-.1-.11S34.86,34.09,34.9,34.06Z"/><path class="cls-4" d="M33.86,33.69l0,0s-.09.06-.22.11a.45.45,0,0,0,.19.09l0-.18Z"/><path class="cls-4" d="M33.85,33.49c.17,0,.24.13.43.08,0-.1-.14-.08-.21-.14,0,.17-.1-.06-.2.06a.12.12,0,0,1,0-.09l-.08.09h.1s-.05,0-.07,0h0l.08.18S33.87,33.58,33.85,33.49Z"/><path class="cls-4" d="M34.75,32.66h0S34.74,32.68,34.75,32.66Z"/><path class="cls-4" d="M34.64,32.73s-.09,0-.07-.07.08,0,.14,0-.13-.09-.21,0h0a.65.65,0,0,1-.3.14A2.83,2.83,0,0,0,34.64,32.73Z"/><path class="cls-4" d="M34.29,33.12l.08.15.15-.07h-.09C34.47,33.12,34.36,33.13,34.29,33.12Z"/><polygon class="cls-4" points="33.72 33.88 33.54 33.85 33.79 33.95 33.72 33.88"/><polygon class="cls-4" points="33.73 34.06 33.58 34.05 33.67 34.1 33.73 34.06"/><path class="cls-4" d="M32.94,44.79l0,.06A.14.14,0,0,0,32.94,44.79Z"/><path class="cls-4" d="M33.12,44.51l-.06,0S33.11,44.52,33.12,44.51Z"/><path class="cls-4" d="M33.24,38.51c-.15,0-.39.05-.22.07l.18,0C33.18,38.55,33.2,38.53,33.24,38.51Z"/><path class="cls-4" d="M33.41,41.76h.05l-.14-.1Z"/><path class="cls-4" d="M34.06,42.06l-.13,0Z"/><path class="cls-4" d="M32,46.37l.1.16C32.19,46.46,32.1,46.43,32,46.37Z"/><path class="cls-4" d="M33.66,35.94a.32.32,0,0,0-.12.12C33.65,36,33.8,36,33.66,35.94Z"/><path class="cls-4" d="M31.43,43.72a.16.16,0,0,0,.07.09A.13.13,0,0,0,31.43,43.72Z"/><path class="cls-4" d="M33.53,36.21l0,0a.19.19,0,0,1,0-.13C33.46,36.1,33.41,36.15,33.53,36.21Z"/><path class="cls-4" d="M28.2,50.86h0Z"/><path class="cls-4" d="M25.94,51.86s0,0,0-.08S25.92,51.81,25.94,51.86Z"/><path class="cls-4" d="M33.61,34.8s0,0,0,0Z"/><path class="cls-4" d="M34.31,34.65l.09,0A.17.17,0,0,1,34.31,34.65Z"/><path class="cls-4" d="M34.56,36.72h0S34.59,36.72,34.56,36.72Z"/><path class="cls-4" d="M33.7,34.74l-.06,0Z"/><path class="cls-4" d="M33.61,34.75l0,0S33.59,34.71,33.61,34.75Z"/><path class="cls-4" d="M33.62,34.85a.14.14,0,0,1,0-.06h0Z"/><path class="cls-4" d="M29.66,48.12h0C29.67,48.2,29.67,48.18,29.66,48.12Z"/><polygon class="cls-4" points="34.78 39.91 34.77 39.91 34.76 39.91 34.78 39.91"/><path class="cls-4" d="M34.87,40.09c-.2-.12-.16-.14-.11-.18l-.49-.08Z"/><path class="cls-4" d="M32.54,45.48h.2c.13.26,0,.29.24.33-.44-.33.21-.39-.24-.71h.13s0,0,0,0c.3,0-.27-.3-.11-.4s.16,0,.19,0l0-.19s.1,0,.07.06l.07-.2h0a2.23,2.23,0,0,1-.17-.25c.09,0,0,.05.1.07l-.06-.16c.15,0,.22.18.16.23.53.18-.07-.15.32-.2v.13c.3.09.25,0,.48-.06-.11,0-.55,0-.61-.19.05,0,.09,0,0-.15.17.09.16,0,.19-.07l.22.12c0-.12-.14-.17-.22-.27.07-.08.25,0,.42,0,.11-.13-.34,0-.3-.24s.09-.21,0-.41c.12,0,.14.08.22.08L33.71,43s.07,0,.1,0-.23-.11-.25-.24c-.25-.13.46,0,.22-.28.08,0,.14.07.23.1a1.19,1.19,0,0,0-.29-.45l.21,0c-.22,0-.38-.18-.52-.34h-.23l-.08-.2a.5.5,0,0,1,.22.1l0,0a.52.52,0,0,1,.36.14h-.17a2,2,0,0,0,.42.24.12.12,0,0,1,0-.08.16.16,0,0,0,.09,0s0,0-.07-.08l.28.06-.1,0,.24-.15c-.21-.24-.57-.51-.61-.77a2.09,2.09,0,0,0,.55.2c-.27,0,.05.21,0,.32,0-.06.15,0,.19,0l-.16-.3c.19.07.16,0,.26,0-.39-.08-.2-.24-.29-.37.13,0,.25.1.19.2.32,0-.4-.29-.12-.34,0,0,0,0,0,.07-.1-.1,0-.22.14-.15v0c.09-.17.15-.54-.17-.65l.45.15-1-.59c.27.1,1,.16,1.1.35,0,0,.11-.08,0-.19a1,1,0,0,1-.45-.08,1.77,1.77,0,0,0,.49-.1c-.07,0-.51-.12-.48-.19s.44.1.48.13l-.4-.26a1,1,0,0,0,.51.07c-.09,0,0-.14,0-.2l-.11,0c.1-.18-.59-.32-.52-.5.08,0,.55.17.62.08a5,5,0,0,1-1.2-.59h.14L33.76,38a9,9,0,0,1,1.27.67c.11-.06.15,0,.16-.11a.17.17,0,0,1,.18.13l.12-.24c-.27,0-.23-.25-.45-.27l.22.32c-.27,0-.72-.29-.65-.46a2,2,0,0,1,.56.13c-.09,0-.15-.2-.08-.21l.13.1c.12-.09-.33-.22,0-.3,0,0,.36-.07.2-.11a6.25,6.25,0,0,1-1.48-.18,2.94,2.94,0,0,1,.48-.19c.25,0,.56.18.77.15a.43.43,0,0,1-.18-.08c.06,0,.22,0,.2,0-.27-.05.05-.19-.22-.08-.07-.1.06-.09.07-.2a1.08,1.08,0,0,1-.65-.27.45.45,0,0,0,.2,0c0-.18.18-.27.2-.44.07,0,.16-.09.27,0-.05,0-.14-.06-.14-.12.25-.08,0,.13.32.08-.16,0-.21-.17-.3-.25s-.06.17,0,.26a1.23,1.23,0,0,1-.81-.4c-.07-.15.22,0,.17-.07.09-.26-.57-.28-.3-.48s.42,0,.58,0-.15.17-.15.25l.11-.09c.07.05.12.13.05.17.2-.06.08-.46.27-.66-.07,0-.14-.11-.23-.08l0,.07c-.17,0-.23-.15-.31-.07-.12-.09-.3-.2-.2-.32h.25c-.07,0-.15.07-.08.11-.11-.06.34-.17,0-.25l-.18.08c-.12-.09-.37-.22-.29-.32-.24,0,0,0-.26.09.36,0,0,.27.35.19-.34.06-.15.13-.44.21.08,0,.16,0,.11.06l.07,0h0a.28.28,0,0,1,.13,0c.18.06.16.2.26.26-.05,0-.1,0-.18,0l.13.09c-.18,0-.3.12-.4,0l0,.12c-.1.06-.15.15-.08.21s.19.15.05.09l.1.19h-.05c0,.17.27.39-.08.56,0,.06.09.13,0,.22h-.16c.05.09-.18.21,0,.26-.43,0-.14.35-.23.48l.2,0c0,.09,0,.18.08.31l.18,0c.13.12-.17.23-.17.38-.07,0,0,0,0-.07-.43.11.22.43-.1.55.06.05,0,.08,0,.1v0l-.11,0,.11,0a.23.23,0,0,0,0,.14l-.19,0h0c-.08,0,.08.06.23.06l.1.09c-.31,0,.08.15-.26.13.15.06.07.26.4.36-.05,0-.07,0-.07,0s-.1.09,0,.16l-.24,0,.29.19a.47.47,0,0,1-.42-.07c.24.23.07.16.32.37l-.15-.05c0,.06.17.19,0,.19-.32,0-.2.55-.56.74.46.09-.24.07.1.19-.11,0-.18,0-.26-.07.06.17-.24.15,0,.35-.11,0-.15-.08-.21-.09s.07.07,0,.07-.08-.06-.11-.09c0,.14.28.28.57.4-.17,0-.16.06,0,.19-.11,0-.23,0-.23-.11s-.26.25,0,.35c-.06,0,0,.06,0,.09s-.09.11-.11.22h0c.26.17,0,.12,0,.22h0c-.29.11.06.13-.26.22l.17.07c.37.2-.3.08-.21.26h.12c.09.13-.59-.07-.67,0s0,0-.05-.08c-.3,0,.21.14.2.28-.13,0-.29-.18-.35-.12s.26.43,0,.41c.1,0,.2.06.24.15s-.47,0-.23.26l-.08,0c0,.1,0,.27.13.4-.59-.3,0,.56-.5.22l-.1.2,0,0c-.12.09,0,.21.06.34-.06,0-.09,0-.11-.07-.23.09-.22.12-.09.45l-.17-.11c.06.11-.43,0-.38.34a.17.17,0,0,1-.06-.08c0,.34-.78.06-.3.61l0,.23c.18-.11.21.24.36.25,0,.09-.3,0-.26-.09l0,0c-.25-.28-.27.1-.45-.08-.26.31-.68.46-1,.74l.25.16-.1.09c-.08,0-.21-.12-.13-.18-.16-.08,0,.21,0,.25-.22.07-.21-.28-.25-.24l0,.07h0c.05.13.14.22.05.3s-.16-.09-.19-.08,0,0,0,0l-.14.11.22.1c0,.13-.11.12.14.23-.38-.18-.53.4-.67.38a.28.28,0,0,1-.1.36c.06,0,.28.14.19.21-.41-.35-.31,0-.68-.12.26.08-.14.31.24.41-.09.05-.17-.11-.32-.12,0,.3-.39.36-.48.65.05,0,.17.05.23.16l-.38,0c0,.07.33.24.07.21.05,0,.14,0,.15.09-.59.37-.23,1.13-1,1.53.16-.05.16,0,.14.07s.17,0,.27.06l-.32.18c.25.1,0,.27.22.34l0-.09c.28.15.68,0,1.06.08-.31-.17.54-.13.11-.4.08,0,.11.07.2.07-.15-.08-.17-.14-.07-.2l0,0c0-.25.22-.3.43-.5l-.18-.06s.1,0,.16,0c-.24-.18-.08.15-.35,0,.38.08.19-.4.61-.25,0-.08-.21-.08-.16-.16l.11,0-.12-.1c.05,0,.2,0,.28,0s0,.05,0,.07c.16,0,.06-.21.12-.21l-.11,0c0-.28.32-.46.27-.8l-.09,0c0-.25.18-.07.24-.29v0c-.05-.08-.05-.16,0-.2s.22,0,.27.17c0-.28-.05-.17-.22-.49l.14.07c-.08-.12-.13-.17-.09-.28,0,.15.22.09.29.27.39,0,0-.47.39-.24-.24-.35-.3,0-.33-.1s-.18-.27-.1-.3.48.25.6.11,0,0,0,0c.13,0,0-.19.17-.14-.15-.2.09-.08-.14-.3l-.06.18c0-.13-.21-.45,0-.45a.64.64,0,0,1,.08.2c.1,0,0-.1.12-.08.23.23-.09.21,0,.44.14.06,0-.3.18,0-.27-.35.17-.1,0-.42l.13.14s0-.13,0-.15l.14.21c-.09-.21.27,0,.25-.17-.13.16-.2-.12-.36-.15,0-.36.47.23.6,0,0,0-.19,0-.21-.07a.52.52,0,0,1,.27,0c.1-.17-.17-.11-.2-.25.22.11,0-.13,0-.24l.14.13c.24-.08-.26-.32,0-.36l.14.24,0-.13.15.17c-.05-.2,0-.19.13-.24-.12-.07-.25-.24-.19-.32s.11.15.19,0c.06.1.15.23,0,.16,0,0,.07.1.11.15s.15-.12.18-.16a.08.08,0,0,1-.07,0l-.07-.33a.18.18,0,0,1,.13.14c0-.05,0-.13,0-.19.1.12.23.22.23.34v-.27c.06,0,.21.05.23.1s-.05-.4.13-.44a.17.17,0,0,1,0-.1c.12-.08.35-.06.28-.33l.28.09c0-.14-.36-.1-.31-.34s.23.09.32.1c-.07-.15-.23-.43,0-.41C32.61,45.43,32.55,45.43,32.54,45.48ZM33.29,44c0,.05.1.16,0,.13S33.2,44.06,33.29,44Zm.54-2.36c.05,0,0,.06-.07.07S33.77,41.69,33.83,41.68Zm-.09-6.44h0C33.67,35.3,33.7,35.28,33.74,35.24Zm.09-.13a.08.08,0,0,0-.08,0s0,0,0,.07S33.87,35.15,33.83,35.11ZM28.41,47.58h.05C28.46,47.67,28.44,47.63,28.41,47.58Z"/><path class="cls-4" d="M34,42l-.11,0A.14.14,0,0,0,34,42Z"/><polygon class="cls-4" points="32.02 46.35 32.01 46.35 32.04 46.37 32.02 46.35"/><path class="cls-4" d="M35.25,37.36a.17.17,0,0,1-.11,0A.09.09,0,0,0,35.25,37.36Z"/><path class="cls-4" d="M33.55,34.39l.05.09s0-.06.06-.07S33.55,34.42,33.55,34.39Z"/><path class="cls-4" d="M34.78,33.71s0,0,0,0h-.09A.06.06,0,0,0,34.78,33.71Z"/><path class="cls-4" d="M34.2,34.35c.16,0,.11-.06.08-.12h0C34.05,34.21,34.13,34.28,34.2,34.35Z"/><path class="cls-4" d="M34.28,34.22a.06.06,0,0,1,0-.06C34.18,34.15,34.26,34.18,34.28,34.22Z"/><path class="cls-4" d="M33.74,34.93s-.21,0-.14,0C33.39,34.85,33.83,35.1,33.74,34.93Z"/><polygon class="cls-4" points="34.73 34.33 34.53 34.34 34.69 34.38 34.73 34.33"/><path class="cls-4" d="M34.56,34.8l.06-.09-.07,0S34.5,34.8,34.56,34.8Z"/><path class="cls-4" d="M34.55,34.68s0-.07,0-.08A.15.15,0,0,0,34.55,34.68Z"/><polygon class="cls-4" points="34.79 34.47 34.74 34.49 34.73 34.56 34.79 34.47"/><path class="cls-4" d="M34.44,35.83l.05.11c.06,0,.11,0,.09,0S34.51,35.82,34.44,35.83Z"/><path class="cls-4" d="M35,35.56a.49.49,0,0,1-.15,0l.25,0Z"/><path class="cls-4" d="M35.05,35.87c.06,0,.18.18.18,0S35.11,35.78,35.05,35.87Z"/><polygon class="cls-4" points="34.55 37.43 34.55 37.4 34.14 37.35 34.55 37.43"/><path class="cls-4" d="M35.26,39c.13-.11-.24-.08-.09-.17-.09-.05-.12.08-.2,0C35.06,39,35,39,35.26,39Z"/><path class="cls-4" d="M35,38.87l0,0Z"/><polygon class="cls-4" points="25.65 52.15 25.55 52.23 25.7 52.19 25.65 52.15"/><path class="cls-4" d="M25.92,52.38l-.26,0,.22.09S25.86,52.38,25.92,52.38Z"/><path class="cls-4" d="M33.86,44.08l0,0c-.07,0-.08,0-.11,0Z"/><polygon class="cls-4" points="33.1 45.02 33.11 45 32.89 44.91 33.1 45.02"/><path class="cls-4" d="M32.77,46s0-.1.06-.13S32.53,45.86,32.77,46Z"/><path class="cls-4" d="M41.43,24.9s.06.07.07.08S41.41,24.89,41.43,24.9Z"/><polygon class="cls-4" points="41.59 24.26 41.62 24.29 41.59 24.16 41.59 24.26"/><path class="cls-4" d="M41.88,23.77c-.16,0-.08.19-.18.25h0l.09.1C41.79,24,41.8,23.83,41.88,23.77Z"/><path class="cls-4" d="M42.32,23.68c-.06,0,0-.08,0,.05h0Z"/><path class="cls-4" d="M42.29,23.73c0,.05.06,0,0,0Z"/><path class="cls-4" d="M42.4,23.48v.1s.09,0,.09,0S42.47,23.47,42.4,23.48Z"/><path class="cls-4" d="M42.34,23.36v.05S42.36,23.4,42.34,23.36Z"/><path class="cls-4" d="M42.33,23.5v-.09s-.08,0,0,0S42.32,23.46,42.33,23.5Z"/><path class="cls-4" d="M42.29,23.53s-.1.06-.1,0C42.13,23.63,42.23,23.67,42.29,23.53Z"/><path class="cls-4" d="M41.76,23.67l-.07,0,0,.08S41.8,23.69,41.76,23.67Z"/><path class="cls-4" d="M42.71,23.12s-.09,0-.13,0v.07S42.67,23.1,42.71,23.12Z"/><path class="cls-4" d="M42.58,23.08V23C42.53,23,42.55,23.07,42.58,23.08Z"/><polygon class="cls-4" points="42.2 23.26 42.23 23.44 42.21 23.24 42.2 23.26"/><polygon class="cls-4" points="42.88 22.87 42.92 22.95 42.87 22.82 42.88 22.87"/><path class="cls-4" d="M43,22.69c0,.07.12,0,.13.08a.37.37,0,0,0,0-.18C43.1,22.64,43.06,22.67,43,22.69Z"/><path class="cls-4" d="M43.08,22.49a.44.44,0,0,0,0,.1A.2.2,0,0,0,43.08,22.49Z"/><path class="cls-4" d="M42.67,22.87a.11.11,0,0,0,.11,0l-.09,0Z"/><path class="cls-4" d="M42.68,22.84h0l0-.06Z"/><path class="cls-4" d="M42.66,22.88h0Z"/><path class="cls-4" d="M42.38,23.12c0-.07,0-.19-.13-.15C42.29,23,42.36,23,42.38,23.12Z"/><path class="cls-4" d="M42.54,22.85l-.06.06s.06,0,.07.05Z"/><polygon class="cls-4" points="42.54 22.8 42.55 22.85 42.57 22.82 42.54 22.8"/><path class="cls-4" d="M42.93,22.56a.18.18,0,0,1,0-.13.52.52,0,0,0-.11.1S42.9,22.6,42.93,22.56Z"/><path class="cls-4" d="M42.8,22.69h0S42.79,22.68,42.8,22.69Z"/><polygon class="cls-4" points="43.24 22.09 43.22 22.09 43.23 22.1 43.24 22.09"/><path class="cls-4" d="M42.83,22.53s0,0,0,.08a.2.2,0,0,1,0-.08S42.83,22.51,42.83,22.53Z"/><path class="cls-4" d="M43.12,22.37l-.08,0S43.14,22.39,43.12,22.37Z"/><path class="cls-4" d="M42.83,22.68h0S42.85,22.69,42.83,22.68Z"/><path class="cls-4" d="M42.83,22.68a.25.25,0,0,0,0-.07s0,.05,0,.07Z"/><path class="cls-4" d="M42.9,21.58c.05.07,0,.2-.09.2s.25.25.41.31c0,0,0-.05,0-.15s-.2.07-.21,0,.08,0,.15-.06c-.11,0,0-.21-.13-.31l0,.12S42.93,21.58,42.9,21.58Z"/><path class="cls-4" d="M43.11,22.2v0a.25.25,0,0,1,.16,0c0-.07,0-.1,0-.12l-.12.11Z"/><path class="cls-4" d="M43,22.35c-.06-.08,0-.17-.15-.19s0,.1,0,.18c.08-.15,0,.06.12,0a.24.24,0,0,1,0,.09l.08,0h0s0,0,0,0h0l0,0s0,0,0,0h0l.06-.16A.32.32,0,0,0,43,22.35Z"/><path class="cls-4" d="M42.13,22.79h0S42.14,22.77,42.13,22.79Z"/><path class="cls-4" d="M42.22,22.76s0,0,0,.07,0,0-.07,0,0,.11.09.07v0c.06,0,.21-.05.21,0A.59.59,0,0,0,42.22,22.76Z"/><path class="cls-4" d="M42.59,22.52l0-.14h-.11l0,0C42.51,22.47,42.57,22.49,42.59,22.52Z"/><polygon class="cls-4" points="43.28 22.11 43.34 22.19 43.29 22.04 43.28 22.11"/><polygon class="cls-4" points="43.39 21.99 43.44 22.05 43.44 21.98 43.39 21.99"/><path class="cls-4" d="M52.43,16.61l0-.05S52.43,16.59,52.43,16.61Z"/><path class="cls-4" d="M52.18,16.77l0,0S52.19,16.76,52.18,16.77Z"/><path class="cls-4" d="M47.35,20c.09,0,.2.14.16.06l0-.09A.12.12,0,0,1,47.35,20Z"/><path class="cls-4" d="M50.16,18.34l0,0v.1Z"/><path class="cls-4" d="M50.05,18l.1,0A.22.22,0,0,0,50.05,18Z"/><path class="cls-4" d="M53.63,15.52l0-.1C53.54,15.47,53.6,15.48,53.63,15.52Z"/><path class="cls-4" d="M44.85,21A.29.29,0,0,0,45,21C44.91,21,44.83,20.91,44.85,21Z"/><path class="cls-4" d="M52.88,17.51s0-.05,0-.07A.08.08,0,0,0,52.88,17.51Z"/><path class="cls-4" d="M45.13,20.92h0A.15.15,0,0,1,45,21C45.05,21,45.11,21,45.13,20.92Z"/><path class="cls-4" d="M59,12.29h0Z"/><path class="cls-4" d="M61.06,12.17l-.05.06A.16.16,0,0,0,61.06,12.17Z"/><path class="cls-4" d="M43.93,21.6s0,0,0,0Z"/><path class="cls-4" d="M43.56,21.4a.06.06,0,0,0,0,0A.08.08,0,0,1,43.56,21.4Z"/><path class="cls-4" d="M45.25,20.22h0Z"/><path class="cls-4" d="M43.86,21.6h0Z"/><path class="cls-4" d="M43.89,21.63h0S43.87,21.66,43.89,21.63Z"/><path class="cls-4" d="M44,21.57l-.06,0h0Z"/><path class="cls-4" d="M56,13.81h0C56.06,13.76,56.05,13.78,56,13.81Z"/><polygon class="cls-4" points="48 18.72 48 18.73 48.01 18.73 48 18.72"/><path class="cls-4" d="M48.12,18.61c0,.13-.06.13-.11.12l.14.24Z"/><path class="cls-4" d="M53,16.17h-.13c0-.18.1-.19,0-.23.17.24-.28.24-.11.49h-.09s0,0,0,0c-.18,0,.06.23-.1.29s-.12,0-.11-.05l-.06.13s-.06,0,0,0l-.15.12h0a1,1,0,0,1,0,.18c-.06,0,0,0,0-.06l-.06.12a.1.1,0,0,1,0-.18c-.24-.21,0,.1-.31.07l.07-.09c-.14-.11-.18,0-.33-.05.05,0,.33.12.27.24s-.08,0-.11.09c-.05-.1-.09,0-.16,0L51.49,17c-.05.08,0,.14,0,.22s-.16-.06-.22-.13.17.11,0,.21-.19.1-.28.24,0-.08-.07-.11l0,.14s0,0,0-.05.06.13,0,.21-.28-.12-.32.09c-.05,0,0-.08-.06-.13a1.09,1.09,0,0,0-.17.34l-.15,0c.13.06.07.22,0,.35l.12.08-.12.13s0-.06,0-.13v0c-.08,0-.08-.11-.07-.2l.09.05a.55.55,0,0,0,0-.26.09.09,0,0,1,0,.05.08.08,0,0,0,0-.05s0,0,0,.06L49.94,18v.06h-.23c-.08.2-.12.47-.32.61,0-.12-.06-.17-.1-.3.11.11.15-.13.28-.14-.07,0-.08-.06-.07-.09l-.16.21c0-.11-.08-.06-.15-.09.12.19-.1.2-.16.29,0-.06,0-.14.07-.16-.17-.11,0,.29-.22.2,0,0,0,0,0,0s-.2.09-.18,0h0c-.18,0-.51.19-.47.37a1.53,1.53,0,0,1-.06-.25l-.09.69c0-.16-.26-.48-.15-.61a.15.15,0,0,0-.17.07s.15.19.11.22c-.16-.13-.1-.06-.28-.16.05,0,.09.27,0,.28a1.29,1.29,0,0,1-.08-.26l-.08.29c0-.06-.06-.2-.12-.25s-.14,0-.18.09l.09,0c-.2,0-.06.38-.25.44,0-.05,0-.31-.16-.3s0,.63-.1.78l-.05-.05-.1.12a4.72,4.72,0,0,1,.15-.85c-.09,0-.05-.07-.15,0s0-.11.05-.13l-.26.05c.07.14-.12.21-.07.32l.2-.24c.06.13,0,.44-.18.48s-.06-.25-.08-.3-.12.15-.15.13l0-.1c-.11,0-.08.24-.25.15s-.18-.13-.16-.05a1.86,1.86,0,0,1,.33.74,1.25,1.25,0,0,1-.34-.13c-.11-.09,0-.32-.11-.41a.23.23,0,0,1,0,.12c-.06,0,0-.12-.11-.07s-.19.06,0,.13c-.07.08-.1,0-.2.06a.46.46,0,0,1,0,.41.31.31,0,0,0-.07-.09c-.18.07-.3,0-.46.12s-.13,0-.12-.1,0,.09-.06.11.1-.07,0-.17c0,.08-.08.17-.12.25s.17-.06.22-.14a.55.55,0,0,1-.09.56c-.1.1-.11-.08-.12-.05-.25.1,0,.39-.3.39S44,21,44,20.93s.19,0,.26-.07h-.11c0-.06.07-.12.12-.11-.12-.06-.42.2-.64.25,0,.05,0,.12,0,.14l0-.05c.11.05,0,.18.07.17s-.06.24-.18.27l-.1-.09s.11,0,.11,0-.26,0-.19.15l.12,0c0,.1,0,.28-.1.31.12.06,0,0,.16,0-.18-.11.19-.15,0-.25.17.1.14,0,.32,0,0,0-.08,0,0-.08s0,0,0,0h0l-.07,0c0-.11.09-.19.1-.26s0,.05.06.08l0-.11c.06.08.2.07.13.18l.1-.05a.18.18,0,0,0,.19-.08c.06,0,.07-.16.06-.07l.13-.14v0c.16-.07.25-.31.51-.24a.28.28,0,0,1,.19-.11l.06.07c0-.06.24,0,.24-.11.16.18.36-.1.51-.11l0-.1a.68.68,0,0,0,.26-.18l0-.09c.07-.11.27,0,.42-.09s0,0-.07,0c.26.14.33-.3.55-.21a.06.06,0,0,1,.1,0h0l.07,0a.11.11,0,0,0-.06,0l.11-.09.06.09h0c.06,0,0-.06,0-.13a.12.12,0,0,0,0-.08c.1.14.11-.1.22.05,0-.09.22-.15.18-.33,0,0,0,0,0,0s.12,0,.15-.07l.07.12.06-.21c.09.05.14.08.1.2.12-.21.12-.1.21-.3l0,.08c.05,0,.1-.16.15-.1s.58-.19.93-.16c-.15-.22.18.05.12-.14,0,.05.09.07.06.13.13-.11.26,0,.31-.19,0,.05,0,.09,0,.12s0-.07.05,0,0,.05,0,.09c.15-.07.09-.25,0-.42.11.05.14,0,.15-.11,0,0,.12.08,0,.14s.36-.07.31-.2c0,0,.08,0,.09,0a1.86,1.86,0,0,0,.25-.1h-.05c0-.17.08-.08.17-.14v0c.27,0,.07-.1.34-.08L51.39,18c-.08-.21.25,0,.33-.11l-.07,0c0-.1.32.17.41.16s0,0,0,.06c.24,0,0-.13.07-.23.06.05.07.18.16.15s.13-.36.32-.3c-.06,0-.11-.07-.07-.14s.35,0,.33-.18c0,0,0,0,0,0s.18-.21.16-.31c.27.24.3-.44.5-.17l.18-.17v0a.23.23,0,0,0,.12-.28s0,0,.06.05c.21-.1.22-.13.25-.38l.09.06c0-.08.35-.1.42-.35a.08.08,0,0,1,0,.05c.09-.26.63-.2.42-.54l0-.18c-.18.12-.1-.14-.21-.13,0-.08.24-.06.18,0h0c.12.17.24-.13.33,0a5.53,5.53,0,0,1,1-.64l-.13-.1.11-.07c.05,0,.11.08,0,.12.09.05.08-.14.07-.17.18,0,0,.19.09.17l0,0h0c0-.09,0-.15.08-.19s.08.06.1.06,0,0,0,0l.14-.06-.11-.08c0-.09.14-.06,0-.16.18.14.57-.15.68-.11a.37.37,0,0,1,.29-.19s-.1-.14,0-.16c.05.29.23.06.38.22-.12-.1.3-.13.11-.28.1,0,0,.1.13.14.17-.18.49-.1.75-.24,0,0-.08-.07-.05-.15l.22.12s0-.22.1-.14c0,0-.06-.06,0-.09.6-.06.93-.63,1.6-.73-.12,0-.08,0,0-.08s-.06-.08-.1-.11l.28-.06c-.06-.13.18-.19.1-.3l0,.07c0-.19-.35-.16-.48-.32,0,.2-.37,0-.33.27-.06,0,0-.07-.07-.1s0,.15-.1.17v0a1.45,1.45,0,0,1-.62.25l.06.08a.16.16,0,0,1-.12,0c0,.17.16-.08.18.1-.17-.13-.41.21-.56,0-.09,0,.07.09,0,.13l0,0v.08c-.06,0-.12,0-.15-.09l0-.05c-.11,0-.21.12-.24.11h.1c-.23.16-.58.19-.79.41l0,0c-.17.15-.18,0-.38.12v0a.21.21,0,0,1-.14.12c0-.07-.14-.07-.09-.15-.18.16-.08.11-.16.33l-.06-.07c0,.09,0,.13-.12.18.07-.09-.11-.09,0-.21-.3-.08-.29.3-.5.11,0,.26.26,0,.22.1s0,.19-.11.2-.25-.2-.43-.09c0,0,0,0,0,0s-.1.15-.23.12c0,.14-.11.06,0,.21l.14-.13c-.07.09,0,.31-.24.33a.39.39,0,0,1,0-.15c-.07,0-.06.09-.13.07s.17-.16.2-.33-.12.23-.18,0c.06.24-.19.09-.2.32l0-.09a.31.31,0,0,1-.05.12l0-.15c0,.16-.24.05-.29.17.18-.15.12.07.25.06-.13.28-.3-.11-.51.14,0,0,.16-.06.14,0a.46.46,0,0,1-.2,0c-.14.15.09.06.07.16s0,.11-.08.2l-.07-.08c-.22.11.1.2-.1.28l0-.16-.05.1-.07-.1c0,.14-.06.15-.17.2a.15.15,0,0,1,.06.22c-.1,0,0-.1-.14,0,0-.06,0-.15.06-.12a.42.42,0,0,1,0-.1c-.11,0-.15.12-.18.15l0,0,0,.25s0,0-.06-.09,0,.09,0,.14-.12-.13-.08-.22l-.07.2s-.14,0-.15,0-.07.3-.21.35a.18.18,0,0,1,0,.06c-.11.08-.26.07-.29.26l-.17-.06c-.06.1.22.07.1.24s-.12-.07-.18-.07,0,.3-.18.28C52.93,16.21,53,16.2,53,16.17ZM51.82,17s0-.13.08-.08S51.88,17,51.82,17Zm-1.94,1.2s0,0,.1,0A.11.11,0,0,1,49.88,18.24Zm-5.65,3.07h0C44.3,21.31,44.27,21.3,44.23,21.31Zm-.14,0a.05.05,0,0,0,0,0s0-.05,0-.06S44.11,21.3,44.09,21.34ZM56.77,14.2l0,0S56.76,14.16,56.77,14.2Z"/><path class="cls-4" d="M50.07,18l0,0S50.1,18,50.07,18Z"/><polygon class="cls-4" points="53.63 15.54 53.64 15.54 53.63 15.52 53.63 15.54"/><path class="cls-4" d="M45.61,19.63l.07,0A.06.06,0,0,0,45.61,19.63Z"/><path class="cls-4" d="M43.66,21.86l0-.07s-.05,0-.07,0S43.68,21.84,43.66,21.86Z"/><path class="cls-4" d="M42.71,21.89s0,0,0,0l0,0S42.76,21.86,42.71,21.89Z"/><path class="cls-4" d="M43.38,21.64c-.06-.07-.08,0-.11,0h0C43.35,21.78,43.36,21.71,43.38,21.64Z"/><path class="cls-4" d="M43.26,21.69a.08.08,0,0,1,0,0S43.25,21.72,43.26,21.69Z"/><path class="cls-4" d="M44,21.47s0,.11,0,.08S44.08,21.34,44,21.47Z"/><polygon class="cls-4" points="43.16 21.45 43.24 21.52 43.21 21.43 43.16 21.45"/><path class="cls-4" d="M43.59,21.21l-.1,0a0,0,0,0,1,0,0S43.61,21.24,43.59,21.21Z"/><path class="cls-4" d="M43.49,21.29s-.05,0-.05.06A.16.16,0,0,0,43.49,21.29Z"/><polygon class="cls-4" points="43.24 21.33 43.28 21.33 43.34 21.3 43.24 21.33"/><path class="cls-4" d="M44.49,20.7l.09-.08a0,0,0,0,0-.08,0S44.46,20.68,44.49,20.7Z"/><path class="cls-4" d="M44.07,20.59s0,0,.08.05l-.06-.12Z"/><path class="cls-4" d="M44.33,20.41s.1-.17,0-.1S44.23,20.43,44.33,20.41Z"/><polygon class="cls-4" points="45.9 19.92 45.88 19.93 45.96 20.13 45.9 19.92"/><path class="cls-4" d="M47.05,18.91c-.14,0,0,.14-.11.12s.11,0,.09.07S47.13,19,47.05,18.91Z"/><path class="cls-4" d="M47,19.1a.08.08,0,0,0,0,0Z"/><polygon class="cls-4" points="61.39 12.03 61.48 12 61.39 11.99 61.39 12.03"/><path class="cls-4" d="M61.39,11.79l.12.08-.06-.12S61.43,11.8,61.39,11.79Z"/><path class="cls-4" d="M51.49,16.89v0a.06.06,0,0,0,.08,0Z"/><polygon class="cls-4" points="52.44 16.44 52.42 16.45 52.52 16.53 52.44 16.44"/><path class="cls-4" d="M53,15.79s0,.06-.07.08S53.13,15.91,53,15.79Z"/></svg>