<svg xmlns="http://www.w3.org/2000/svg" viewBox="0 0 37.87 24.51"><defs><style>.cls-1{fill:#8cc63f;}.cls-2{fill:#46a940;}.cls-3{fill:#008b41;}</style></defs><g id="圖層_3" data-name="圖層 3"><path class="cls-1" d="M.55,3.72a.84.84,0,0,1,1.28.1,2.78,2.78,0,0,1,.46,1.64A2.79,2.79,0,0,1,.64,5,.84.84,0,0,1,.55,3.72Z"/><path class="cls-1" d="M3.9,3.73a.83.83,0,0,0-1.28.09,2.81,2.81,0,0,0-.46,1.65A2.82,2.82,0,0,0,3.81,5,.83.83,0,0,0,3.9,3.73Z"/><path class="cls-1" d="M2.08,5V6.88a.15.15,0,1,0,.3,0V5a.15.15,0,0,0-.3,0Z"/><path class="cls-2" d="M.55,11.36a.83.83,0,0,1,1.28.09,2.81,2.81,0,0,1,.46,1.65,2.82,2.82,0,0,1-1.65-.46A.83.83,0,0,1,.55,11.36Z"/><path class="cls-2" d="M3.9,11.36a.83.83,0,0,0-1.28.09,2.82,2.82,0,0,0-.46,1.65,2.82,2.82,0,0,0,1.65-.46A.83.83,0,0,0,3.9,11.36Z"/><path class="cls-2" d="M2.08,12.6v1.92a.15.15,0,0,0,.3,0V12.6a.15.15,0,0,0-.3,0Z"/><path class="cls-3" d="M.55,19a.83.83,0,0,1,1.28.09,2.81,2.81,0,0,1,.46,1.65,2.82,2.82,0,0,1-1.65-.46A.83.83,0,0,1,.55,19Z"/><path class="cls-3" d="M3.9,19a.83.83,0,0,0-1.28.1,2.78,2.78,0,0,0-.46,1.64,2.82,2.82,0,0,0,1.65-.46A.83.83,0,0,0,3.9,19Z"/><path class="cls-3" d="M2.08,20.23v1.92a.15.15,0,0,0,.3,0V20.23a.15.15,0,0,0-.3,0Z"/><path class="cls-1" d="M6.26,1a.83.83,0,0,1,1.28.1A2.78,2.78,0,0,1,8,2.77a2.78,2.78,0,0,1-1.64-.46A.83.83,0,0,1,6.26,1Z"/><path class="cls-1" d="M9.61,1a.84.84,0,0,0-1.28.1,2.78,2.78,0,0,0-.46,1.64,2.81,2.81,0,0,0,1.65-.46A.83.83,0,0,0,9.61,1Z"/><path class="cls-1" d="M7.79,2.28V4.19a.15.15,0,0,0,.3,0V2.28a.15.15,0,0,0-.3,0Z"/><path class="cls-2" d="M6.26,8.66a.84.84,0,0,1,1.28.1A2.78,2.78,0,0,1,8,10.4a2.78,2.78,0,0,1-1.64-.46A.83.83,0,0,1,6.26,8.66Z"/><path class="cls-2" d="M9.61,8.67a.83.83,0,0,0-1.28.09,2.78,2.78,0,0,0-.46,1.64A2.77,2.77,0,0,0,9.52,10,.83.83,0,0,0,9.61,8.67Z"/><path class="cls-2" d="M7.79,9.91v1.91a.15.15,0,0,0,.3,0V9.91a.15.15,0,1,0-.3,0Z"/><path class="cls-3" d="M6.26,16.29a.84.84,0,0,1,1.28.1A2.78,2.78,0,0,1,8,18a2.71,2.71,0,0,1-1.64-.46A.83.83,0,0,1,6.26,16.29Z"/><path class="cls-3" d="M9.61,16.3a.83.83,0,0,0-1.28.09A2.81,2.81,0,0,0,7.87,18a2.81,2.81,0,0,0,1.65-.46A.83.83,0,0,0,9.61,16.3Z"/><path class="cls-3" d="M7.79,17.54v1.91a.15.15,0,0,0,.3,0V17.54a.15.15,0,0,0-.3,0Z"/><path class="cls-1" d="M12.73,3.72a.84.84,0,0,1,1.28.1,2.78,2.78,0,0,1,.46,1.64A2.77,2.77,0,0,1,12.82,5,.84.84,0,0,1,12.73,3.72Z"/><path class="cls-1" d="M16.08,3.73a.83.83,0,0,0-1.28.09,2.81,2.81,0,0,0-.46,1.65A2.78,2.78,0,0,0,16,5,.83.83,0,0,0,16.08,3.73Z"/><path class="cls-1" d="M14.25,5V6.88a.15.15,0,0,0,.3,0V5a.15.15,0,0,0-.3,0Z"/><path class="cls-2" d="M12.73,11.36a.83.83,0,0,1,1.28.09,2.81,2.81,0,0,1,.46,1.65,2.81,2.81,0,0,1-1.65-.46A.83.83,0,0,1,12.73,11.36Z"/><path class="cls-2" d="M16.08,11.36a.83.83,0,0,0-1.28.09,2.82,2.82,0,0,0-.46,1.65A2.78,2.78,0,0,0,16,12.64.83.83,0,0,0,16.08,11.36Z"/><path class="cls-2" d="M14.25,12.6v1.92a.15.15,0,0,0,.3,0V12.6a.15.15,0,0,0-.3,0Z"/><path class="cls-3" d="M12.73,19a.83.83,0,0,1,1.28.09,2.81,2.81,0,0,1,.46,1.65,2.81,2.81,0,0,1-1.65-.46A.83.83,0,0,1,12.73,19Z"/><path class="cls-3" d="M16.08,19a.83.83,0,0,0-1.28.1,2.78,2.78,0,0,0-.46,1.64A2.78,2.78,0,0,0,16,20.27.83.83,0,0,0,16.08,19Z"/><path class="cls-3" d="M14.25,20.23v1.92a.15.15,0,0,0,.3,0V20.23a.15.15,0,0,0-.3,0Z"/><path class="cls-1" d="M34.49,1a.83.83,0,0,0-1.28.1,2.78,2.78,0,0,0-.46,1.64,2.78,2.78,0,0,0,1.64-.46A.83.83,0,0,0,34.49,1Z"/><path class="cls-1" d="M31.14,1a.84.84,0,0,1,1.28.1,2.78,2.78,0,0,1,.46,1.64,2.81,2.81,0,0,1-1.65-.46A.83.83,0,0,1,31.14,1Z"/><path class="cls-1" d="M32.66,2.28V4.19a.15.15,0,0,0,.3,0V2.28a.15.15,0,1,0-.3,0Z"/><path class="cls-2" d="M34.49,8.66a.84.84,0,0,0-1.28.1,2.78,2.78,0,0,0-.46,1.64,2.78,2.78,0,0,0,1.64-.46A.83.83,0,0,0,34.49,8.66Z"/><path class="cls-2" d="M31.14,8.67a.83.83,0,0,1,1.28.09,2.78,2.78,0,0,1,.46,1.64A2.77,2.77,0,0,1,31.23,10,.83.83,0,0,1,31.14,8.67Z"/><path class="cls-2" d="M32.66,9.91v1.91a.15.15,0,0,0,.3,0V9.91a.15.15,0,1,0-.3,0Z"/><path class="cls-3" d="M34.49,16.29a.84.84,0,0,0-1.28.1A2.78,2.78,0,0,0,32.75,18a2.71,2.71,0,0,0,1.64-.46A.83.83,0,0,0,34.49,16.29Z"/><path class="cls-3" d="M31.14,16.3a.83.83,0,0,1,1.28.09A2.81,2.81,0,0,1,32.88,18a2.81,2.81,0,0,1-1.65-.46A.83.83,0,0,1,31.14,16.3Z"/><path class="cls-3" d="M32.66,17.54v1.91a.15.15,0,1,0,.3,0V17.54a.15.15,0,0,0-.3,0Z"/><path class="cls-1" d="M28.71,3.72a.84.84,0,0,0-1.28.1A2.78,2.78,0,0,0,27,5.46,2.77,2.77,0,0,0,28.62,5,.84.84,0,0,0,28.71,3.72Z"/><path class="cls-1" d="M25.36,3.73a.83.83,0,0,1,1.28.09,2.81,2.81,0,0,1,.46,1.65A2.78,2.78,0,0,1,25.46,5,.83.83,0,0,1,25.36,3.73Z"/><path class="cls-1" d="M26.89,5V6.88a.15.15,0,1,0,.3,0V5a.15.15,0,0,0-.3,0Z"/><path class="cls-2" d="M28.71,11.36a.83.83,0,0,0-1.28.09A2.81,2.81,0,0,0,27,13.1a2.81,2.81,0,0,0,1.65-.46A.83.83,0,0,0,28.71,11.36Z"/><path class="cls-2" d="M25.36,11.36a.83.83,0,0,1,1.28.09,2.82,2.82,0,0,1,.46,1.65,2.78,2.78,0,0,1-1.64-.46A.83.83,0,0,1,25.36,11.36Z"/><path class="cls-2" d="M26.89,12.6v1.92a.15.15,0,0,0,.3,0V12.6a.15.15,0,0,0-.3,0Z"/><path class="cls-3" d="M28.71,19a.83.83,0,0,0-1.28.09A2.81,2.81,0,0,0,27,20.73a2.81,2.81,0,0,0,1.65-.46A.83.83,0,0,0,28.71,19Z"/><path class="cls-3" d="M25.36,19a.83.83,0,0,1,1.28.1,2.78,2.78,0,0,1,.46,1.64,2.78,2.78,0,0,1-1.64-.46A.83.83,0,0,1,25.36,19Z"/><path class="cls-3" d="M26.89,20.23v1.92a.15.15,0,0,0,.3,0V20.23a.15.15,0,0,0-.3,0Z"/><path class="cls-1" d="M22.25,5.61a.84.84,0,0,0-1.28.1,2.78,2.78,0,0,0-.46,1.64,2.75,2.75,0,0,0,1.64-.45A.85.85,0,0,0,22.25,5.61Z"/><path class="cls-1" d="M18.89,5.62a.83.83,0,0,1,1.28.09,2.81,2.81,0,0,1,.46,1.65A2.78,2.78,0,0,1,19,6.9.84.84,0,0,1,18.89,5.62Z"/><path class="cls-1" d="M20.42,6.86V8.77a.15.15,0,1,0,.3,0V6.86a.15.15,0,0,0-.3,0Z"/><path class="cls-2" d="M22.25,13.25a.83.83,0,0,0-1.28.09A2.81,2.81,0,0,0,20.51,15a2.78,2.78,0,0,0,1.64-.46A.84.84,0,0,0,22.25,13.25Z"/><path class="cls-2" d="M18.89,13.25a.83.83,0,0,1,1.28.1A2.78,2.78,0,0,1,20.63,15,2.78,2.78,0,0,1,19,14.53.84.84,0,0,1,18.89,13.25Z"/><path class="cls-2" d="M20.42,14.49v1.92a.15.15,0,0,0,.3,0V14.49a.15.15,0,0,0-.3,0Z"/><path class="cls-3" d="M22.25,20.88A.83.83,0,0,0,21,21a2.81,2.81,0,0,0-.46,1.65,2.78,2.78,0,0,0,1.64-.46A.84.84,0,0,0,22.25,20.88Z"/><path class="cls-3" d="M18.89,20.88a.83.83,0,0,1,1.28.1,2.78,2.78,0,0,1,.46,1.64A2.78,2.78,0,0,1,19,22.16.84.84,0,0,1,18.89,20.88Z"/><path class="cls-3" d="M20.42,22.12V24a.15.15,0,0,0,.3,0V22.12a.15.15,0,0,0-.3,0Z"/></g></svg>