<svg xmlns="http://www.w3.org/2000/svg" viewBox="0 0 54.58 24.51"><defs><style>.cls-1{fill:#8cc63f;}.cls-2{fill:#39b54a;}.cls-3{fill:#009245;}</style></defs><g id="圖層_3" data-name="圖層 3"><path class="cls-1" d="M.68,8.64c.88-.88,2.14-1,3.42.25s1.23,4.4,1.23,4.4-3.11.05-4.39-1.23S-.19,9.51.68,8.64Z"/><path class="cls-1" d="M9.64,8.65c-.87-.88-2.14-1-3.42.25S5,13.29,5,13.29s3.11.06,4.39-1.22S10.52,9.52,9.64,8.65Z"/><path class="cls-1" d="M4.76,12v5.11a.4.4,0,0,0,.8,0V12a.4.4,0,0,0-.8,0Z"/><path class="cls-2" d="M18.74,8.64c.87-.88,2.14-1,3.42.25s1.23,4.4,1.23,4.4-3.11.05-4.4-1.23S17.86,9.51,18.74,8.64Z"/><path class="cls-2" d="M27.7,8.65c-.88-.88-2.14-1-3.43.25s-1.22,4.39-1.22,4.39,3.11.06,4.39-1.22S28.57,9.52,27.7,8.65Z"/><path class="cls-2" d="M22.82,12v5.11a.4.4,0,0,0,.8,0V12a.4.4,0,0,0-.8,0Z"/><path class="cls-3" d="M36.82,8.64c.88-.88,2.14-1,3.42.25s1.23,4.4,1.23,4.4-3.11.05-4.39-1.23S36,9.51,36.82,8.64Z"/><path class="cls-3" d="M45.78,8.65c-.87-.88-2.14-1-3.42.25s-1.23,4.39-1.23,4.39,3.11.06,4.39-1.22S46.66,9.52,45.78,8.65Z"/><path class="cls-3" d="M40.9,12v5.11a.4.4,0,0,0,.8,0V12a.4.4,0,0,0-.8,0Z"/></g></svg>