<svg xmlns="http://www.w3.org/2000/svg" viewBox="0 0 229.19 48.85"><defs><style>.cls-1{fill:#15683d;}.cls-2{fill:#15953d;}.cls-3{fill:#15713d;}.cls-4{font-size:16.31px;fill:#fff;font-family:Gadugi-Bold, Gadugi;font-weight:700;letter-spacing:0.8em;}</style></defs><g id="圖層_1" data-name="圖層 1"><path class="cls-1" d="M51,45.71c-1.44-9.53-3.51-19-5.61-28.43l-3.93.28c-3.83.27-7.67.55-11.49.72-4.8.22-9.69,1.47-14.53,1.87s-9.69,0-14.44.43c0,2,7.69,12.31,8.12,12.78.21.23.32,6.17-2.09,15.32Z"/><path class="cls-2" d="M50.82,45.72H51c-.44-2.93-1-5.86-1.5-8.78-1.74.21-3.5.17-5.39.24-4.12.16-8.18.48-12.29.56A115.51,115.51,0,0,1,50.82,45.72Z"/><path class="cls-1" d="M179.64,45.71c1.44-9.53,3.51-19,5.61-28.43l3.93.28c3.83.27,7.67.55,11.49.72,4.8.22,9.69,1.47,14.53,1.87s9.69,0,14.44.43c.05,2-7.69,12.31-8.12,12.78-.21.23-.32,6.17,2.09,15.32Z"/><path class="cls-2" d="M179.78,45.72h-.14c.44-2.93,1-5.86,1.5-8.78,1.74.21,3.51.17,5.39.24,4.12.16,8.18.48,12.29.56A115.51,115.51,0,0,0,179.78,45.72Z"/><path class="cls-3" d="M204.56,6.13c-4.36-.46-8.83,0-13.22-.39S182.4,4,178,3.86c-3.5-.1-7-.31-10.54-.5q-11.16-.57-22.34-.92C136,2.16,126.9,1,117.78,1h-8.46C100.2,1,91.1,2.16,82,2.44q-11.17.35-22.34.92c-3.51.19-7,.4-10.54.5C44.7,4,40.2,5.34,35.76,5.74s-8.86-.07-13.22.39c-.05,2.32.77,5,1.16,7.27q2.1,12.48,4.14,25c27.1-2.58,54.36-4.18,81.59-4.25v0l4.12,0,4.12,0v0c27.23.07,54.49,1.67,81.59,4.25q2-12.48,4.14-25C203.79,11.11,204.61,8.45,204.56,6.13Z"/></g><g id="圖層_2" data-name="圖層 2"><text class="cls-4" transform="translate(70.55 24.34)">NEWS</text></g></svg>